<svg xmlns="http://www.w3.org/2000/svg" width="292" height="293" viewBox="0 0 292 293">
    <g fill="none" fill-rule="evenodd">
        <path fill="#EFADFF" d="M146.5 67c43.906 0 79.5 35.594 79.5 79.5 0 43.907-35.594 79.5-79.5 79.5S67 190.407 67 146.5c0-43.906 35.594-79.5 79.5-79.5"/>
        <path fill="#191919" d="M192 252h-91l28.217-91h34.566z"/>
        <path fill="#D733FF" d="M145.603.797C65.317.797 0 66.225 0 146.645c0 80.422 65.317 145.85 145.603 145.85 80.285 0 145.601-65.428 145.601-145.85 0-80.42-65.316-145.848-145.601-145.848m0 75.432c38.823 0 70.297 31.527 70.297 70.416 0 38.89-31.474 70.417-70.297 70.417-38.825 0-70.299-31.527-70.299-70.417s31.474-70.416 70.299-70.416"/>
        <path fill="#FFF" d="M233.922 155.24C224 177.685 170.387 189 145.95 189c-24.435 0-79.007-11.316-88.93-33.76C47.402 133.489 75.254 62 75.254 62h141.394s26.892 71.488 17.274 93.24"/>
        <path fill="#FFF" d="M67.733 98S49.682 59.558 60.4 50.703C69.307 43.343 98 62.218 98 62.218L67.733 98zM225.267 98s18.051-38.442 7.334-47.297C223.693 43.343 195 62.218 195 62.218L225.267 98z"/>
        <path fill="#191919" d="M68.558 62.876C63.011 67.751 74.058 88 74.058 88L91 70.9s-17.67-12.217-22.442-8.024M225.442 62.876c5.547 4.875-5.5 25.124-5.5 25.124L203 70.9s17.67-12.217 22.442-8.024M148.386 174h-6.772c-3.638 0-6.614-3.061-6.614-6.803v-2.394c0-3.742 2.976-6.803 6.614-6.803h6.772c3.638 0 6.614 3.061 6.614 6.803v2.394c0 3.742-2.976 6.803-6.614 6.803"/>
        <path fill="#191919" d="M233.923 156.574c3.108-7.023 2.401-19.236.025-32.55-9.259-10.292-44.386-43.814-88.447-16.614 0 0-43.922-29.677-88.123 15.831-2.628 13.617-3.526 26.173-.358 33.333 5.592 12.641 25.364 21.749 45.933 27.293 1.984-6.592 14.085-42.348 42.838-41.836 27.095.483 39.31 32.675 42.275 41.969 20.479-5.53 40.219-14.682 45.857-27.426"/>
        <path fill="#D733FF" d="M207.752 131.587c1.333 6.49-2.848 12.832-9.339 14.165-6.49 1.333-12.832-2.848-14.165-9.338-1.333-6.49 2.848-12.833 9.339-14.166 6.49-1.333 12.832 2.848 14.165 9.339"/>
        <path fill="#191919" d="M207 124.05L182.134 132 178 118.948 202.866 111z"/>
        <path fill="#FFF" d="M213 132.5a6.5 6.5 0 1 1-13 0 6.5 6.5 0 0 1 13 0"/>
        <path fill="#191919" d="M133 101.886S137.569 78.018 144.923 78c7.369-.019 12.077 23.886 12.077 23.886L145.736 111 133 101.886z"/>
        <path fill="#D733FF" d="M78.248 130.587c-1.333 6.49 2.848 12.832 9.339 14.165 6.49 1.333 12.832-2.848 14.165-9.338 1.333-6.49-2.848-12.833-9.339-14.166-6.49-1.333-12.832 2.848-14.165 9.339"/>
        <path fill="#191919" d="M81 124.05l24.866 7.95L110 118.948 85.134 111z"/>
        <path fill="#FFF" d="M107 132.5a6.5 6.5 0 1 1-13 0 6.5 6.5 0 0 1 13 0"/>
    </g>
</svg>
