<svg xmlns="http://www.w3.org/2000/svg" viewBox="0 0 304.17 304.17"><defs><style>.cls-1{fill:#efadff;}.cls-2{fill:#191919;}.cls-3{fill:#d733ff;}.cls-4{fill:#fff;}</style></defs><title>Asset 1</title><g id="Layer_2" data-name="Layer 2"><g id="Layer_1-2" data-name="Layer 1"><g id="_Group_" data-name="&lt;Group&gt;"><path class="cls-1" d="M152.08,69.41a82.67,82.67,0,1,1-82.68,82.67,82.67,82.67,0,0,1,82.68-82.67"/></g><polygon class="cls-2" points="199.01 259.41 105.51 259.41 134.5 165.91 170.01 165.91 199.01 259.41"/><g id="_Group_2" data-name="&lt;Group&gt;"><path class="cls-3" d="M152.08,78.66a73.43,73.43,0,1,1-73.43,73.43,73.43,73.43,0,0,1,73.43-73.43m0-78.66C68.23,0,0,68.22,0,152.08S68.23,304.17,152.08,304.17s152.08-68.22,152.08-152.08S235.94,0,152.08,0Z"/></g><path class="cls-4" d="M243.92,160.91c-10.34,23.27-66.2,35-91.67,35s-82.33-11.73-92.67-35c-10-22.55,19-96.67,19-96.67H225.92S253.94,138.36,243.92,160.91Z"/><path class="cls-4" d="M70.51,103.29S51.95,62.27,63,52.82c9.16-7.85,38.67,12.29,38.67,12.29Z"/><path class="cls-4" d="M234.09,103.29s18.56-41,7.54-50.47C232.47,45,203,65.11,203,65.11Z"/><path class="cls-2" d="M70.84,64.24c-5.51,4.9,5.46,25.26,5.46,25.26l16.83-17.2S75.58,60,70.84,64.24Z"/><path class="cls-2" d="M234.13,64.24c5.51,4.9-5.46,25.26-5.46,25.26l-16.83-17.2S229.39,60,234.13,64.24Z"/><rect class="cls-2" x="141.67" y="162.18" width="21.17" height="16.46" rx="7" ry="7"/><path class="cls-2" d="M243.92,160.91c3.24-7.29,2.5-20,0-33.77-9.65-10.68-46.25-45.45-92.16-17.23,0,0-45.77-30.79-91.82,16.42-2.74,14.13-3.67,27.15-.37,34.58C65.42,174,86,183.47,107.45,189.22c2.07-6.84,14.68-43.93,44.64-43.4,28.23.5,41,33.89,44.05,43.54C217.48,183.62,238,174.13,243.92,160.91Z"/><path class="cls-2" d="M139.46,104.94s4.84-24.48,12.64-24.5,12.8,24.5,12.8,24.5L153,114.29Z"/><rect class="cls-3" x="87.59" y="134.08" width="33.33" height="10.15"/><rect class="cls-3" x="183.34" y="134.08" width="33.33" height="10.15"/><path class="cls-4" d="M48.44,210.3l-1.12-2,2.11-1.2,1.28,2.25,3.19-1.28-1.12-2,2.11-1.2,1.28,2.26,5.1-2,1.29,2.28-5.1,2,1.32,2.33,5.09-2,1.29,2.28-5.09,2,1.12,2-2.11,1.2L57.8,215l-3.19,1.28,1.12,2-2.11,1.2-1.28-2.25-5.1,2L46,216.92l5.1-2-1.32-2.33-5.09,2-1.29-2.28Zm8.07,2.41-1.32-2.33L52,211.66,53.32,214Z"/><path class="cls-4" d="M70.68,227.73a4.14,4.14,0,0,0,0-1.92,5.08,5.08,0,0,0-1-1.89,5.24,5.24,0,0,0-3.81-2,6,6,0,0,0-2.26.3,7.46,7.46,0,0,0-3.87,3,6.13,6.13,0,0,0-.82,2.1,5.19,5.19,0,0,0,.05,2.14,4.94,4.94,0,0,0,1,1.95,4.74,4.74,0,0,0,1.84,1.47,4.57,4.57,0,0,0,2.21.36l.11,4.38a7.32,7.32,0,0,1-3.88-.86,9.54,9.54,0,0,1-3-2.51,11.77,11.77,0,0,1-2-3.68,9.45,9.45,0,0,1-.44-3.81,9.12,9.12,0,0,1,1.16-3.65A11.63,11.63,0,0,1,62.44,218a9.11,9.11,0,0,1,3.82-.28,9.47,9.47,0,0,1,3.6,1.32A11.77,11.77,0,0,1,73,221.83a10.28,10.28,0,0,1,.93,1.42,9.18,9.18,0,0,1,.7,1.65,7.75,7.75,0,0,1,.33,1.82,6.52,6.52,0,0,1-.17,1.92Z"/><path class="cls-4" d="M70.17,234.52a10.8,10.8,0,0,1,3.33-2.61,9.11,9.11,0,0,1,3.71-1,9.45,9.45,0,0,1,3.78.66,12.5,12.5,0,0,1,6.19,5.47,9.46,9.46,0,0,1,1.11,3.67,9.12,9.12,0,0,1-.49,3.8,11.61,11.61,0,0,1-5.51,6.23,9.13,9.13,0,0,1-3.71,1,9.45,9.45,0,0,1-3.78-.66,12.51,12.51,0,0,1-6.19-5.47,9.45,9.45,0,0,1-1.11-3.67,9.12,9.12,0,0,1,.49-3.8A10.8,10.8,0,0,1,70.17,234.52Zm3.28,2.9a7,7,0,0,0-1.32,2.13,5.65,5.65,0,0,0-.39,2.25,5.47,5.47,0,0,0,.56,2.2A6.73,6.73,0,0,0,76,247.24a5.48,5.48,0,0,0,2.26.28,5.64,5.64,0,0,0,2.19-.66,7.46,7.46,0,0,0,3.27-3.69,5.65,5.65,0,0,0,.4-2.26,5.5,5.5,0,0,0-.56-2.2,6.73,6.73,0,0,0-3.66-3.24,5.5,5.5,0,0,0-2.26-.28,5.65,5.65,0,0,0-2.2.67A7,7,0,0,0,73.45,237.42Z"/><path class="cls-4" d="M93,241.53l5.43,3.22a18,18,0,0,1,3.49,2.67,10,10,0,0,1,2.25,3.27,8.16,8.16,0,0,1,.58,3.81,10,10,0,0,1-1.49,4.29,9.12,9.12,0,0,1-2.84,3.07,8.81,8.81,0,0,1-3.55,1.35A10.44,10.44,0,0,1,93,263a13.32,13.32,0,0,1-3.82-1.54L83.21,258Zm-4.15,15.25,1.88,1.12A11.81,11.81,0,0,0,93.18,259a5.8,5.8,0,0,0,2.37.26,4.72,4.72,0,0,0,2.16-.82,6.39,6.39,0,0,0,1.85-2.09,5.34,5.34,0,0,0,.79-2.37,4.91,4.91,0,0,0-.35-2.2,6.2,6.2,0,0,0-1.28-1.94,9.27,9.27,0,0,0-2-1.58L94.6,247Z"/><path class="cls-4" d="M109.55,251l12.11,4.69-1.4,3.63-8.18-3.17-1.29,3.32,7.73,3-1.4,3.63-7.73-3-1.4,3.63,8.64,3.34-1.4,3.63-12.56-4.87Z"/><path class="cls-4" d="M140.61,279.26l-11.37-2.21a12.56,12.56,0,0,1-3.94-1.44,9.25,9.25,0,0,1-2.85-2.52,9,9,0,0,1-1.53-3.43,10.3,10.3,0,0,1,0-4.21,9.72,9.72,0,0,1,1.54-3.74,9.42,9.42,0,0,1,2.72-2.63,9.81,9.81,0,0,1,3.56-1.36,11.08,11.08,0,0,1,4.06.06,10.88,10.88,0,0,1,3.78,1.48,10,10,0,0,1,2.79,2.6,9.49,9.49,0,0,1,1.54,3.45,9.65,9.65,0,0,1,0,4,8.71,8.71,0,0,1-.61,1.92,7.63,7.63,0,0,1-1,1.67A6,6,0,0,1,136,275v.05l5.25,1Zm-15.39-13a5.9,5.9,0,0,0,.88,4.45,5.93,5.93,0,0,0,1.58,1.58,5.83,5.83,0,0,0,4.45.86,5.92,5.92,0,0,0,2.05-.88,6,6,0,0,0,1.6-8.24,6,6,0,0,0-1.58-1.59,5.84,5.84,0,0,0-4.45-.86,6,6,0,0,0-2.05.88,5.89,5.89,0,0,0-2.48,3.8Z"/><path class="cls-4" d="M160.66,272.11a9.2,9.2,0,0,1-.56,3.12,6.87,6.87,0,0,1-1.57,2.46A7,7,0,0,1,156,279.3a10.59,10.59,0,0,1-7-.11,7,7,0,0,1-2.5-1.69A6.86,6.86,0,0,1,145,275a9.22,9.22,0,0,1-.46-3.14l.19-11.74,4.21.07-.19,11.58a4.65,4.65,0,0,0,.26,1.65,3.91,3.91,0,0,0,.78,1.32,3.6,3.6,0,0,0,1.21.88,3.85,3.85,0,0,0,1.55.33,3.77,3.77,0,0,0,1.54-.29,3.65,3.65,0,0,0,1.23-.84,3.94,3.94,0,0,0,.82-1.3,4.65,4.65,0,0,0,.31-1.64l.19-11.58,4.21.07Z"/><path class="cls-4" d="M163.87,259.69l4.18-.52,2.36,19-4.18.52Z"/><path class="cls-4" d="M174,273.87l6.69-13.47-9.08,2.21-.88-3.62,14-3.42.88,3.62-6.51,13.43,9.55-2.33.92,3.78-14.69,3.58Z"/><path class="cls-4" d="M187.22,254.89l5.22-2.34,12.85,8.79,0,0-5.44-12.12,3.84-1.73,7.83,17.44-5,2.25-13.18-9-.05,0,5.57,12.41L195,272.33Z"/><path class="cls-4" d="M205.82,245.84l3.58-2.22,10.07,16.25-3.58,2.22Z"/><path class="cls-4" d="M236.42,245.32a15.31,15.31,0,0,1-2.13,3.54,19.79,19.79,0,0,1-2.94,2.94,11.78,11.78,0,0,1-3.65,2.06,9.45,9.45,0,0,1-3.8.5,9.13,9.13,0,0,1-3.67-1.11,11.62,11.62,0,0,1-5.24-6.46,9.12,9.12,0,0,1-.33-3.82,9.45,9.45,0,0,1,1.27-3.62,11.78,11.78,0,0,1,2.76-3.15,15.35,15.35,0,0,1,3.63-2.23,8.29,8.29,0,0,1,3.83-.66l-.26,4.39a5.92,5.92,0,0,0-2.36.18,6.92,6.92,0,0,0-2.38,1.35,6.23,6.23,0,0,0-1.61,1.9,5.51,5.51,0,0,0-.65,2.18,5.61,5.61,0,0,0,.3,2.28,7.44,7.44,0,0,0,3.11,3.83,5.64,5.64,0,0,0,2.16.75,5.47,5.47,0,0,0,2.27-.19,6.24,6.24,0,0,0,2.19-1.18,8,8,0,0,0,1.65-1.74,9,9,0,0,0,.84-1.5l-2-2.41-2.66,2.16-2.45-3,5.8-4.71Z"/><path class="cls-4" d="M226.62,230.1l2.73-3.2,5.42,4.63,5.31-6.22-5.42-4.63,2.73-3.2,14.54,12.41-2.73,3.2-6.28-5.37-5.31,6.22,6.28,5.37-2.73,3.2Z"/><path class="cls-4" d="M244.3,213.34,241.5,218l-3.2-1.91,7.76-13,3.2,1.91-2.8,4.68,13.21,7.9-2.16,3.62Z"/></g></g></svg>